# xmcd
#
# Track frame offsets:
# 150
# 16326
# 32387
# 44146
# 61602
# 77745
# 91774
# 110125
# 123578
# 142538
# 154445
#
# Disc length: 2418 seconds
#
#
# Revision: 2
# Processed by: cddbd v1.5.2PL0 Copyright (c) Steve Scherf et al.
# Submitted via: FreeRIP 2.96 
#
DISCID=8509700b
DTITLE=SUPERMERK2 - LA LATA
DYEAR=2003
DGENRE=Salsa
TTITLE0=La lata
TTITLE1=La resaka
TTITLE2=El Avion
TTITLE3=Mulo raro
TTITLE4=La gorda
TTITLE5=Levanten las manos
TTITLE6=Que calor
TTITLE7=Todos los pibes
TTITLE8=Tomando porqueria
TTITLE9=Triste
TTITLE10=Banda Luna -El mamut
EXTD=YEAR: 2003
EXTT0=
EXTT1=
EXTT2=
EXTT3=
EXTT4=
EXTT5=
EXTT6=
EXTT7=
EXTT8=
EXTT9=
EXTT10=
PLAYORDER=
